HIERARCHY
ROOT Hips
{
 OFFSET 0.000000 0.000000 0.000000
 CHANNELS 6 Xposition Yposition Zposition Yrotation Xrotation Zrotation
 JOINT Chest
 {
  OFFSET 0.000000 9.585900 0.002600
  CHANNELS 3 Yrotation Xrotation Zrotation
  JOINT Chest2
  {
   OFFSET 0.000000 9.601200 -0.005300
   CHANNELS 3 Yrotation Xrotation Zrotation
   JOINT Chest3
   {
    OFFSET 0.000000 9.561800 0.000000
    CHANNELS 3 Yrotation Xrotation Zrotation
    JOINT Chest4
    {
     OFFSET 0.000000 9.552100 0.000000
     CHANNELS 3 Yrotation Xrotation Zrotation
     JOINT Neck
     {
      OFFSET 0.000000 14.453000 0.000000
      CHANNELS 3 Yrotation Xrotation Zrotation
      JOINT Head
      {
       OFFSET 0.000000 8.936500 -0.011300
       CHANNELS 3 Yrotation Xrotation Zrotation
       End Site
       {
        OFFSET 0.000000 17.073600 -0.006000
       }
      }
     }
     JOINT RightCollar
     {
      OFFSET -2.921100 9.558500 0.000000
      CHANNELS 3 Yrotation Xrotation Zrotation
      JOINT RightShoulder
      {
       OFFSET -13.519700 0.000000 0.000000
       CHANNELS 3 Yrotation Xrotation Zrotation
       JOINT RightElbow
       {
        OFFSET 0.000000 -29.696600 0.000000
        CHANNELS 3 Yrotation Xrotation Zrotation
        JOINT RightWrist
        {
         OFFSET 0.000000 -24.004700 0.000000
         CHANNELS 3 Yrotation Xrotation Zrotation
         End Site
         {
          OFFSET 0.000000 -17.728500 0.000000
         }
        }
       }
      }
     }
     JOINT LeftCollar
     {
      OFFSET 2.921100 9.558500 0.000000
      CHANNELS 3 Yrotation Xrotation Zrotation
      JOINT LeftShoulder
      {
       OFFSET 13.519700 0.000000 0.000000
       CHANNELS 3 Yrotation Xrotation Zrotation
       JOINT LeftElbow
       {
        OFFSET 0.000000 -29.696600 0.000000
        CHANNELS 3 Yrotation Xrotation Zrotation
        JOINT LeftWrist
        {
         OFFSET 0.000000 -24.004700 0.000000
         CHANNELS 3 Yrotation Xrotation Zrotation
         End Site
         {
          OFFSET 0.000000 -17.728500 0.000000
         }
        }
       }
      }
     }
    }
   }
  }
 }
 JOINT RightHip
 {
  OFFSET -7.771700 -0.012900 -0.001300
  CHANNELS 3 Yrotation Xrotation Zrotation
  JOINT RightKnee
  {
   OFFSET 0.000000 -40.869800 0.001200
   CHANNELS 3 Yrotation Xrotation Zrotation
   JOINT RightAnkle
   {
    OFFSET 0.000000 -39.717900 0.002100
    CHANNELS 3 Yrotation Xrotation Zrotation
    JOINT RightToe
    {
     OFFSET 0.000000 -4.965400 11.033500
     CHANNELS 3 Yrotation Xrotation Zrotation
     End Site
     {
      OFFSET 0.000000 -1.423100 5.872300
     }
    }
   }
  }
 }
 JOINT LeftHip
 {
  OFFSET 7.771700 -0.012900 -0.001300
  CHANNELS 3 Yrotation Xrotation Zrotation
  JOINT LeftKnee
  {
   OFFSET 0.000000 -40.869800 0.001200
   CHANNELS 3 Yrotation Xrotation Zrotation
   JOINT LeftAnkle
   {
    OFFSET 0.000000 -39.717900 0.002100
    CHANNELS 3 Yrotation Xrotation Zrotation
    JOINT LeftToe
    {
     OFFSET 0.000000 -4.965400 11.033500
     CHANNELS 3 Yrotation Xrotation Zrotation
     End Site
     {
      OFFSET 0.000000 -1.423100 5.872300
     }
    }
   }
  }
 }
}
MOTION
Frames: 7
Frame Time: 0.008333
0.000000 85.388000 0.000000 0.000000 -5.767877 0.000000 0.000000 11.653817 0.000000 0.000000 -5.885947 0.000000 0.000000 -0.000000 0.000000 0.000000 -0.000000 0.000000 0.000000 12.528835 0.000000 0.000000 0.711642 0.000000 0.000000 -0.000000 0.000000 0.000000 0.000000 -90.000000 0.000000 -2.309062 0.000000 0.000000 2.309062 0.000000 0.000000 -0.000000 0.000000 0.000000 -0.000000 90.000000 0.000000 -2.309062 0.000000 0.000000 2.309062 0.000000 0.000000 8.520406 0.000000 0.000000 1.905762 0.000000 -0.000000 -4.658285 0.000000 0.000000 -0.000000 0.000000 0.000000 8.520406 0.000000 0.000000 1.905762 0.000000 -0.000000 -4.658285 0.000000 0.000000 -0.000000 0.000000
-136.216916 58.356152 112.156080 174.565411 -31.072706 -3.357522 3.070509 21.445201 2.630295 0.374449 2.919476 0.252578 0.471475 4.663204 0.372110 2.369787 18.234207 1.833130 -0.713812 15.354796 1.033251 -1.636923 -7.206298 2.177496 2.480818 -2.276523 0.068104 7.754718 -16.070427 -17.122221 -172.094983 -78.945744 -156.372968 12.867666 -15.304960 -48.839109 -7.879381 -4.370438 -3.476559 3.526108 -16.023635 0.151758 37.055271 -69.723331 -71.577776 -0.015600 -3.288272 22.054500 4.913912 -43.555439 0.452128 -12.596408 64.042690 -12.561272 8.525059 27.682985 4.672949 -0.473091 -18.250534 2.674461 -7.489670 -41.779879 3.393093 23.382722 66.274987 23.062057 -20.205442 5.134798 -0.923108 -0.105301 -0.182727 -0.185300
-136.210647 58.358891 112.153815 174.530665 -31.099798 -3.366960 3.028406 21.427277 2.606104 0.388865 2.924656 0.253834 0.502042 4.680217 0.381459 2.364210 18.230266 1.827748 -1.056115 15.688021 1.169037 -2.241700 -6.519816 2.529084 2.487102 -2.340813 0.054730 7.792467 -16.110530 -17.204145 -172.021907 -78.936939 -156.457439 12.845319 -15.280486 -48.815771 -7.947221 -4.436558 -3.491654 3.633811 -16.019019 0.237950 37.294458 -69.797630 -71.804266 0.034013 -3.206119 22.050571 4.895454 -43.523058 0.487021 -12.592032 64.028699 -12.538162 8.532547 27.680774 4.656980 -0.505010 -18.238768 2.673615 -7.486047 -41.754039 3.420138 23.323125 66.298463 23.027975 -20.176800 5.143514 -0.915042 -0.088950 -0.173947 -0.170208
-136.202890 58.360963 112.153375 174.484850 -31.116756 -3.380595 3.016105 21.406168 2.607931 0.385025 2.921585 0.247085 0.534042 4.696631 0.389465 2.315737 18.196901 1.808451 -1.354303 16.066289 1.307030 -2.838953 -5.806727 2.870997 2.555495 -2.320074 0.052679 7.836506 -16.196687 -17.304422 -171.956883 -78.946475 -156.531025 12.823174 -15.259116 -48.794377 -7.936461 -4.455564 -3.504938 3.591674 -16.032548 0.373029 37.304352 -69.830536 -71.808309 0.070375 -3.194571 22.080886 4.889771 -43.505162 0.511744 -12.661041 64.007028 -12.535771 8.529687 27.698885 4.578307 -0.539826 -18.234311 2.694957 -7.490940 -41.740191 3.453482 23.284030 66.322800 23.021249 -20.129177 5.151279 -0.906920 -0.086592 -0.168128 -0.162453
-136.198497 58.364886 112.149645 174.417290 -31.155501 -3.361617 3.018311 21.408371 2.592969 0.335425 2.887000 0.234117 0.576828 4.718587 0.392642 2.302981 18.188798 1.798059 -1.649949 16.460280 1.444663 -3.426796 -5.070259 3.203599 2.610389 -2.363491 0.040314 7.906969 -16.217444 -17.388135 -171.875830 -78.973643 -156.614533 12.806463 -15.235992 -48.775086 -7.936203 -4.494268 -3.518914 3.473706 -16.045391 0.559528 37.224244 -69.821263 -71.699073 0.086380 -3.188861 22.105183 4.930199 -43.468155 0.524147 -12.677480 63.998839 -12.525547 8.522593 27.699602 4.560581 -0.524629 -18.227005 2.683463 -7.445979 -41.707133 3.449871 23.270463 66.341231 23.038182 -20.107661 5.176020 -0.891181 -0.070395 -0.179320 -0.159235
-136.194343 58.367297 112.148987 174.389700 -31.171821 -3.364419 2.988025 21.392546 2.580285 0.346286 2.891844 0.235885 0.510014 4.675457 0.381932 2.336346 18.208840 1.795005 -1.941329 16.867449 1.575895 -4.004898 -4.310810 3.531972 2.667938 -2.416175 0.021605 7.983912 -16.232487 -17.471903 -171.563942 -79.050904 -156.943907 12.834343 -15.232737 -48.721120 -7.938419 -4.554228 -3.538213 3.286442 -16.059907 0.793304 37.054531 -69.797211 -71.491849 0.105036 -3.179932 22.128816 4.938559 -43.452511 0.528149 -12.716857 63.989408 -12.525722 8.529610 27.707464 4.537302 -0.516017 -18.225859 2.673596 -7.436545 -41.698166 3.447558 23.266644 66.359704 23.063234 -20.059634 5.195031 -0.873641 -0.087585 -0.197259 -0.171170
-136.194033 58.369230 112.149021 174.361866 -31.181350 -3.345165 2.950946 21.372817 2.543857 0.330559 2.881620 0.233055 0.506363 4.672241 0.380581 2.282772 18.183960 1.783222 -2.181100 17.311270 1.696963 -4.570137 -3.526150 3.857540 2.774934 -2.430072 0.002450 8.066517 -16.264990 -17.565224 -171.542957 -79.085281 -156.933917 12.790767 -15.187933 -48.688145 -7.890289 -4.608582 -3.567792 3.040027 -16.079122 1.070698 36.786784 -69.756233 -71.188609 0.123969 -3.173165 22.149677 4.970142 -43.443327 0.482055 -12.722513 63.984124 -12.479318 8.522654 27.720268 4.551899 -0.508135 -18.225635 2.618705 -7.402041 -41.703156 3.405875 23.278829 66.375719 23.110764 -20.042814 5.236290 -0.816057 -0.086510 -0.235857 -0.226561
